<?xml version="1.0" encoding="UTF-8"?>
<svg width="1200pt" height="1200pt" version="1.1" viewBox="0 0 1200 1200" xmlns="http://www.w3.org/2000/svg">
 <path d="m600 624c8.3906 0 15.609-7.2188 15.609-15.609v-139.18c0-8.3906-7.2188-15.609-15.609-15.609s-15.609 7.2188-15.609 15.609v138c0 9.5625 7.2188 16.781 15.609 16.781z"/>
 <path d="m525.61 601.22c15.609 0 27.609-12 27.609-27.609s-12-27.609-27.609-27.609-27.609 12-27.609 27.609 13.219 27.609 27.609 27.609z"/>
 <path d="m674.39 601.22c15.609 0 27.609-12 27.609-27.609s-12-27.609-27.609-27.609-27.609 12-27.609 27.609 12 27.609 27.609 27.609z"/>
 <path d="m1077.6 888h-31.219c-6-13.219-13.219-27.609-20.391-43.219h16.781c8.3906 0 15.609-7.2188 15.609-15.609v-145.18c0-4.7812-2.3906-9.6094-6-12l-228-189.61h51.609c6 0 12-3.6094 14.391-9.6094 4.7812-9.6094 2.3906-12-18-37.219-9.6094-12-22.781-27.609-36-44.391-9.6094-12-19.219-22.781-27.609-33.609l21.609 2.3906c6 1.2188 12-2.3906 15.609-8.3906 3.6094-4.7812 3.6094-12 0-16.781l-90-132c-3.6094-4.7812-8.3906-7.2188-13.219-7.2188-4.7812 0-10.781 2.3906-13.219 7.2188l-90 132c-3.6094 4.7812-3.6094 12 0 16.781s9.6094 8.3906 15.609 8.3906l21.609-2.3906c-8.3906 9.6094-18 21.609-27.609 33.609-3.6094 4.7812-7.2188 9.6094-10.781 13.219h-78c-3.6094-4.7812-7.2188-9.6094-10.781-13.219-9.6094-12-19.219-22.781-27.609-33.609l21.609 2.3906c6 1.2188 12-2.3906 15.609-8.3906 3.6094-4.7812 3.6094-12 0-16.781l-90-132c-3.6094-4.7812-8.3906-7.2188-13.219-7.2188-4.7812 0-10.781 2.3906-13.219 7.2188l-90 132c-3.6094 4.7812-3.6094 12 0 16.781s9.6094 8.3906 15.609 8.3906l21.609-2.3906c-8.3906 9.6094-18 21.609-27.609 33.609-13.219 15.609-26.391 32.391-36 44.391-20.391 25.219-22.781 27.609-18 37.219 2.3906 6 8.3906 9.6094 14.391 9.6094h51.609l-228 189.61c-3.6094 3.6094-6 7.2188-6 12v145.22c0 8.3906 7.2188 15.609 15.609 15.609h16.781c-8.3906 15.609-14.391 30-20.391 43.219h-31.219c-8.3906 0-15.609 7.2188-15.609 15.609v84c0 8.3906 7.2188 15.609 15.609 15.609h954c8.3906 0 15.609-7.2188 15.609-15.609v-84c2.4375-8.4375-4.7812-15.656-13.172-15.656zm-51.609-196.78v122.39h-16.781c-40.781-81.609-94.781-183.61-141.61-254.39zm-298.78-343.22c3.6094-4.7812 4.7812-12 1.2188-18-3.6094-6-9.6094-9.6094-15.609-8.3906l-26.438 2.3906 57.609-84 57.609 84-26.391-2.3906c-6-1.2188-13.219 2.3906-15.609 8.3906-3.6094 6-3.6094 13.219 1.1719 18 25.219 30 61.219 74.391 82.781 102h-87.562c-24-14.391-51.609-26.391-82.781-34.781 18-22.828 38.391-48 54-67.219zm-370.82 102c21.609-27.609 57.609-70.781 82.781-102 3.6094-4.7812 4.7812-12 1.2188-18-3.6094-6-9.6094-9.6094-15.609-8.3906l-26.391 2.3906 57.609-84 57.609 84-26.391-2.3906c-6-1.2188-13.219 2.3906-15.609 8.3906-3.6094 6-2.3906 13.219 1.1719 18 15.609 19.219 36 44.391 55.219 66-32.391 8.3906-60 20.391-82.781 34.781zm12 115.22c1.2188-1.2188 78-123.61 231.61-127.22h1.2188c152.39 3.6094 230.39 126 230.39 127.22v1.2188c58.781 85.219 135.61 236.39 177.61 322.78h-122.44l-72-218.39c-2.3906-7.2188-8.3906-10.781-15.609-10.781l-399.56-0.046875c-7.2188 0-13.219 4.7812-15.609 10.781l-72 218.39-122.39 0.046875c42-86.438 118.78-237.61 178.78-324-1.1719 0 0 0 0 0zm484.82 322.78h-237.61v-196.78h171.61zm-268.82-196.78v196.78h-237.61l64.781-198zm-410.39 122.39v-122.39l159.61-132c-46.828 70.781-100.83 172.78-141.61 254.39zm886.78 158.39h-921.56v-51.609h921.61z"/>
</svg>
