<?xml version="1.0" encoding="UTF-8"?>
<svg width="1200pt" height="1200pt" version="1.1" viewBox="0 0 1200 1200" xmlns="http://www.w3.org/2000/svg">
 <path d="m1094.4 788.39c-2.3906-1.2188-279.61-166.78-480-436.78v-60c16.781 7.2188 44.391 13.219 81.609 12 7.2188 0 14.391-7.2188 13.219-14.391 0-7.2188-7.2188-13.219-14.391-13.219-60 2.3906-85.219-18-85.219-18-3.6094-3.6094-9.6094-4.7812-15.609-2.3906-4.7812 2.3906-8.3906 7.2188-8.3906 13.219v84c-199.22 268.78-476.39 434.39-480 435.56-7.2188 3.6094-8.3906 13.219-4.7812 19.219 3.6094 7.2188 13.219 8.3906 19.219 4.7812 0 0 8.3906-4.7812 22.781-14.391v120h-30.047c-7.2188 0-14.391 6-14.391 14.391 0 7.2188 6 14.391 14.391 14.391h963.61c7.2188 0 14.391-6 14.391-14.391 0-7.2188-6-14.391-14.391-14.391h-19.219v-120c14.391 9.6094 22.781 14.391 22.781 14.391 2.3906 1.2188 4.7812 2.3906 7.2188 2.3906 4.7812 0 9.6094-2.3906 12-7.2188 3.6094-5.9531 1.2188-15.562-4.7812-19.172zm-340.78-235.18c8.3906 20.391 70.781 171.61 171.61 318h-162l-148.82-393.61v-79.219c44.391 56.391 92.391 109.22 139.22 154.82zm-499.22 345.56h691.22c4.7812 6 9.6094 12 14.391 19.219h-720c4.7812-6 9.6094-12 14.391-19.219zm360-342 118.78 314.39h-118.78zm-28.781 314.44h-118.78l118.78-314.39zm0-472.82v79.219l-148.82 393.61h-106.78c-1.2188-2.3906-2.3906-6-4.7812-7.2188-6-4.7812-15.609-3.6094-19.219 2.3906-1.2188 2.3906-2.3906 3.6094-3.6094 4.7812h-27.609c100.78-146.39 163.22-296.39 171.61-318 46.828-45.562 94.828-98.391 139.22-154.78zm-414 381.61c50.391-34.781 133.22-94.781 222-176.39-34.781 74.391-100.78 202.78-188.39 314.39h-33.609v-138zm856.78 138h-33.609c-88.781-111.61-154.78-240-188.39-314.39 88.781 81.609 171.61 141.61 222 176.39z"/>
 <path d="m428.39 680.39c-7.2188-3.6094-15.609 0-19.219 7.2188s-7.2188 14.391-9.6094 20.391c-3.6094 7.2188-1.2188 15.609 6 19.219 2.3906 1.2188 3.6094 1.2188 6 1.2188 4.7812 0 9.6094-2.3906 13.219-8.3906 3.6094-7.2188 7.2188-14.391 10.781-21.609 2.4375-6.0469 0.046875-14.438-7.1719-18.047z"/>
 <path d="m397.22 742.78c-7.2188-3.6094-15.609-1.2188-19.219 6s-7.2188 14.391-10.781 20.391c-3.6094 7.2188-1.2188 15.609 6 19.219 2.3906 1.2188 4.7812 1.2188 7.2188 1.2188 4.7812 0 9.6094-2.3906 12-7.2188 3.6094-6 7.2188-13.219 10.781-20.391 3.5625-7.2188 1.1719-15.609-6-19.219z"/>
 <path d="m457.22 615.61c-7.2188-3.6094-15.609 0-18 7.2188-3.6094 7.2188-6 14.391-9.6094 21.609s0 15.609 7.2188 19.219c2.3906 1.2188 3.6094 1.2188 6 1.2188 4.7812 0 10.781-3.6094 13.219-8.3906 3.6094-7.2188 6-14.391 9.6094-21.609 1.125-7.2656-2.4375-15.656-8.4375-19.266z"/>
 <path d="m363.61 804c-7.2188-3.6094-15.609-2.3906-19.219 4.7812-3.6094 7.2188-8.3906 13.219-12 19.219-4.7812 6-2.3906 15.609 4.7812 19.219 2.3906 1.2188 4.7812 2.3906 7.2188 2.3906 4.7812 0 9.6094-2.3906 12-6 3.6094-6 8.3906-13.219 12-20.391 3.6094-6 1.2188-14.438-4.7812-19.219z"/>
 <path d="m463.22 598.78c1.1719 1.2188 3.5625 1.2188 4.7812 1.2188 6 0 10.781-3.6094 13.219-8.3906 1.2188-3.6094 3.6094-7.2188 4.7812-10.781 2.3906-7.2188-1.2188-15.609-8.3906-18-7.2188-2.3906-15.609 1.2188-18 8.3906-1.2188 3.6094-3.6094 7.2188-4.7812 10.781-1.2188 6 1.1719 14.391 8.3906 16.781z"/>
</svg>
