<?xml version="1.0" encoding="UTF-8"?>
<svg width="1200pt" height="1200pt" version="1.1" viewBox="0 0 1200 1200" xmlns="http://www.w3.org/2000/svg">
 <path d="m861.56 850.97h-220.82v-26.25h220.82zm1.1719-57.188h-223.18c-16.453 0-29.766 13.359-29.766 29.766v28.594c0 16.406 13.359 29.766 29.766 29.766h223.18c16.453 0 29.766-13.359 29.766-29.766v-28.594c0.046875-16.406-13.312-29.766-29.766-29.766zm217.03 168.32v-50.578c0-6.1875-3.2812-11.109-8.9531-13.547l-37.5-16.078h-89.109c-8.5781 0-15.469-6.9375-15.469-15.469v-85.969l-338.34 0.046875v196.36h38.156c6.8906-26.531 31.031-46.172 59.672-46.172s52.781 19.641 59.672 46.172h192c6.8438-26.531 31.031-46.172 59.672-46.172s52.781 19.641 59.672 46.172h5.7656c8.1562 0 14.766-6.6094 14.766-14.766zm-80.203 60.938c-16.922 0-30.656-13.781-30.656-30.656 0-16.922 13.734-30.656 30.656-30.656s30.703 13.781 30.703 30.656-13.781 30.656-30.703 30.656zm-311.34 0c-16.922 0-30.656-13.781-30.656-30.656 0-16.922 13.781-30.656 30.656-30.656 16.922 0 30.656 13.781 30.656 30.656s-13.734 30.656-30.656 30.656zm-193.08-589.92 112.69 258.42h-19.828c-15.75 0-28.547 12.797-28.547 28.547v63.656c-16.969-15.562-39.562-25.078-64.312-25.078-52.5 0-95.203 42.703-95.203 95.203v123h-141.98zm-326.44 543.74h-48.469v-144.94c0-0.14062 0.1875-0.375 0.375-0.375h47.906c0.1875 0 0.375 0.23438 0.375 0.375v144.94zm31.125 0h24.328l182.86-419.21-207.19 317.34zm441.79-285.32h28.969l-87.375-133.87zm-82.266 285.32v-123c0-35.438-28.828-64.266-64.266-64.266s-64.266 28.828-64.266 64.266v123zm478.45-229.6c0-13.688-11.156-24.797-24.844-24.797h-422.58v27.047h447.42zm-25.594 103.69h-52.547v-70.5h19.641zm70.828 18.609-34.969-15-34.547-74.062h26.719c15.75 0 28.594-12.797 28.594-28.547v-4.6406c0-30.75-25.031-55.734-55.781-55.734h-11.25l0.375-126.71 31.828 31.828c6.0469 6.0469 15.844 6.0469 21.891 0s6.0469-15.844 0-21.891l-53.578-53.578 0.14062-79.125 31.5 31.453c6 6.0469 15.844 6.0469 21.891 0s6.0469-15.844 0-21.891l-57.75-57.797c-6.0469-6.0469-15.844-6.0469-21.891 0l-57.797 57.797c-6.0469 6.0469-6.0469 15.844 0 21.891s15.844 6.0469 21.891 0l31.266-31.219-0.23438 79.5-52.875 52.875c-6.0469 6.0469-6.0469 15.797 0 21.891 6.0469 6.0469 15.844 6.0469 21.891 0l30.891-30.891-0.42188 125.76-154.18 0.046876-1.0312-123.89 29.016 29.016c6.0469 6 15.844 6.0469 21.891 0s6.0469-15.844 0-21.891l-51.281-51.281-0.65625-79.922 30.047 30.047c6.0469 6.0469 15.797 6.0469 21.891 0 6.0469-6.0469 6.0469-15.844 0-21.891l-52.266-52.266-0.65625-79.922 31.031 31.031c6.0469 6.0469 15.797 6.0469 21.891 0 6.0469-6.0469 6.0469-15.797 0-21.891l-57.797-57.797c-6.0469-6.0469-15.844-6.0469-21.891 0l-57.75 57.797c-6.0469 6.0469-6.0469 15.844 0 21.891s15.844 6.0469 21.891 0l31.641-31.641 0.65625 78.609-54.188 54.188c-6.0469 6.0469-6.0469 15.844 0 21.891s15.844 6.0469 21.891 0l32.672-32.625 0.65625 78.609-55.172 55.172c-6.0469 6.0469-6.0469 15.844 0 21.891s15.844 6.0469 21.891 0l33.656-33.656 1.0312 128.53h-78.141l-193.97-297.14 39.141-60c4.6875-7.1719 2.6719-16.734-4.5-21.422s-16.734-2.6719-21.422 4.5l-31.734 48.609-31.734-48.609c-4.6875-7.1719-14.25-9.1875-21.422-4.5s-9.1875 14.25-4.5 21.422l39.141 60-278.63 426.89c-4.3594-12.047-15.891-20.672-29.438-20.672h-47.906c-17.25 0-31.312 14.062-31.312 31.312v160.4c0 8.5312 6.9375 15.469 15.469 15.469h523.82c6.8906 26.531 31.031 46.125 59.672 46.125s52.781-19.641 59.672-46.125h192c6.8438 26.531 31.031 46.125 59.672 46.125s52.781-19.641 59.672-46.125h5.7656c25.219 0 45.703-20.531 45.703-45.703v-50.578c-0.046875-18.562-10.641-34.641-27.703-41.953zm-810.19-692.58c32.625 0 62.109 15.188 80.859 39.609-65.812-17.25-130.36 32.344-130.36 100.36 0 21.703 6.6562 42.188 18.469 59.25-41.156-13.125-71.062-51.75-71.062-97.219 0.046875-56.25 45.844-102 102.09-102zm0 234.98c-73.312 0-132.98-59.672-132.98-132.98s59.672-132.98 132.98-132.98c62.156 0 115.41 42.234 129.52 102.7 3.4688 14.812-14.484 25.172-25.594 14.859-13.5-12.562-31.125-19.453-49.547-19.453-40.172 0-72.844 32.672-72.844 72.844 0 27.516 15.234 52.359 39.703 64.875 13.5 6.8906 9.8906 27.328-5.2031 29.156-5.3438 0.65625-10.734 0.98438-16.031 0.98438z" fill-rule="evenodd"/>
</svg>
